<svg xmlns="http://www.w3.org/2000/svg" width="25" height="25" viewBox="0 0 632.842 577.675">
  <g id="Tracé_1" data-name="Tracé 1" transform="translate(629.672 577.675) rotate(-180)" fill="#ffffff">
    <path d="M 176.9471130371094 577.1748046875 C 168.7668609619141 577.1749877929688 160.3449401855469 576.6749877929688 151.9151916503906 575.6887817382813 C 144.8414459228516 574.8612060546875 137.8853607177734 573.7103881835938 131.2402801513672 572.268310546875 C 124.4146957397461 570.7870483398438 119.7017822265625 569.3884887695313 116.9501113891602 568.4759521484375 C 113.0614776611328 567.1865234375 111.5847396850586 566.3732299804688 111.2915267944336 566.0803833007813 L 111.2915267944336 565.6873168945313 L 110.7915267944336 565.6873168945313 C 110.5293655395508 565.6759033203125 108.9299468994141 565.2106323242188 105.7691955566406 564.0109252929688 C 103.3594436645508 563.0962524414063 99.37211608886719 561.50146484375 94.06078338623047 559.097900390625 C 85.65236663818359 555.2929077148438 72.77635955810547 548.9267578125 59.1849479675293 540.2064819335938 C 44.42961120605469 530.7393188476563 32.16336441040039 520.6498413085938 22.72702980041504 510.2181396484375 C 17.17436218261719 504.0798034667969 12.56652927398682 497.7653198242188 9.03144645690918 491.4498901367188 C 5.165332317352295 484.5432434082031 2.489810466766357 477.4686279296875 1.07879364490509 470.4220581054688 C 1.066105604171753 470.0962524414063 0.9481750130653381 469.3920288085938 0.6994463801383972 467.9299926757813 C 0.1236130371689796 464.5458068847656 -0.9481369853019714 458.2465515136719 -1.735136985778809 449.6851501464844 C -2.701720237731934 439.1703186035156 -2.920220375061035 428.6163940429688 -2.384803533554077 418.316650390625 C -1.676303625106812 404.6897277832031 0.3581963777542114 391.4964904785156 3.662196397781372 379.1033020019531 C 5.579779624938965 371.9104919433594 7.957529544830322 364.8792419433594 10.72952938079834 358.2049865722656 C 13.74419593811035 350.9462280273438 17.30377960205078 343.9204711914063 21.30953025817871 337.3229064941406 C 32.32352828979492 319.1821594238281 43.62736129760742 303.4606323242188 56.88327789306641 287.8464660644531 C 68.96336364746094 273.6173095703125 81.40885925292969 260.8832397460938 95.81944274902344 246.1383972167969 C 111.1282806396484 230.4745635986328 128.4796142578125 212.7207336425781 148.8712768554688 189.4777221679688 C 230.1724090576172 96.80854034423828 310.5434265136719 7.372802734375 316.5217895507813 0.7235075235366821 C 318.7389221191406 2.911528348922729 330.6940612792969 14.74278354644775 348.6213684082031 33.09131240844727 C 366.919189453125 51.81906127929688 395.3571166992188 81.358642578125 426.9233703613281 115.7326431274414 C 462.4011840820313 154.3661499023438 494.5186157226563 191.1066436767578 522.38330078125 224.9335632324219 C 557.2089233398438 267.2108154296875 585.4503784179688 305.0279846191406 606.3231811523438 337.334716796875 C 610.9656372070313 344.5201416015625 614.9568481445313 351.9812316894531 618.1862182617188 359.5107421875 C 621.235595703125 366.6206359863281 623.6828002929688 373.9714050292969 625.4598388671875 381.3587341308594 C 628.6951293945313 394.8080749511719 629.822021484375 408.8002319335938 628.8091430664063 422.9464721679688 C 626.7869262695313 451.1885681152344 616.71142578125 474.8423156738281 608.6151733398438 489.712158203125 C 604.207763671875 497.8069763183594 599.1343383789063 505.5523071289063 594.3295288085938 511.5213012695313 C 592.3897094726563 513.9310913085938 590.5706787109375 515.9537963867188 589.0692749023438 517.3706665039063 C 587.0665283203125 519.2607421875 586.4656372070313 519.282470703125 586.4410400390625 519.282470703125 L 586.1320190429688 519.282470703125 L 585.9937744140625 519.5588989257813 C 585.5919189453125 520.362548828125 580.961669921875 523.7487182617188 569.8524169921875 529.7833862304688 C 558.5801391601563 535.9065551757813 544.9541015625 542.3987426757813 531.4845581054688 548.0639038085938 C 514.109130859375 555.3717041015625 497.3402099609375 561.220458984375 481.6434326171875 565.4476318359375 C 462.592529296875 570.578125 445.5358581542969 573.1802368164063 430.9472045898438 573.1815795898438 C 430.9433898925781 573.1815795898438 430.9392700195313 573.1815795898438 430.9354858398438 573.1815795898438 C 424.0323791503906 573.1815795898438 417.5996704101563 572.5921630859375 411.815185546875 571.4297485351563 C 405.6737670898438 570.195556640625 400.1014404296875 568.28271484375 395.2530212402344 565.7443237304688 C 376.460205078125 555.9053955078125 360.6506958007813 544.7661743164063 348.2637023925781 532.6359252929688 C 338.3655395507813 522.9429931640625 330.6192932128906 512.6002197265625 325.2398681640625 501.8948974609375 C 323.1286926269531 497.6934814453125 321.3816833496094 493.4256591796875 320.0472717285156 489.2099914550781 C 318.9806823730469 485.8403015136719 318.1740417480469 482.4966430664063 317.6496887207031 479.2718811035156 C 316.759765625 473.7992248535156 316.9960327148438 470.5480651855469 316.99853515625 470.5158996582031 L 316.0041198730469 470.4133911132813 C 316.0003662109375 470.4424743652344 315.6115417480469 473.3844909667969 314.255859375 478.2802429199219 C 313.0049438476563 482.7977294921875 310.6513671875 489.9499816894531 306.5431213378906 498.3693237304688 C 301.9262084960938 507.8307189941406 296.0794372558594 516.931640625 289.1650390625 525.4192504882813 C 280.5217895507813 536.029052734375 270.1758728027344 545.7057495117188 258.4146118164063 554.180419921875 C 252.5161895751953 558.4305419921875 246.0125274658203 562.1502075195313 239.0844421386719 565.2359008789063 C 232.6672821044922 568.0938720703125 225.7377014160156 570.4744873046875 218.4881134033203 572.3113403320313 C 205.7526092529297 575.5382080078125 191.7761993408203 577.174560546875 176.9471130371094 577.1748046875 Z" stroke="none"/>
    <path d="M 316.5433044433594 1.447509765625 C 308.2979736328125 10.62017822265625 229.2220458984375 98.64993286132813 149.2471923828125 189.8074645996094 C 128.8466186523438 213.060546875 111.4902954101563 230.8193969726563 96.1771240234375 246.4877319335938 C 81.77301025390625 261.2258911132813 69.333251953125 273.9542236328125 57.26446533203125 288.1700744628906 C 44.0260009765625 303.7635498046875 32.73687744140625 319.4647216796875 21.73675537109375 337.5823974609375 C 17.74420166015625 344.1583862304688 14.1961669921875 351.161376953125 11.19122314453125 358.396728515625 C 8.42767333984375 365.0505676269531 6.05712890625 372.0606384277344 4.14520263671875 379.2320556640625 C 0.8502197265625 391.5917358398438 -1.1788330078125 404.7503967285156 -1.885498046875 418.3426513671875 C -2.41973876953125 428.6185607910156 -2.20166015625 439.1483154296875 -1.23724365234375 449.6393127441406 C -0.4520263671875 458.181640625 0.61767578125 464.4685668945313 1.1923828125 467.8461303710938 C 1.449951171875 469.3601684570313 1.55682373046875 470.0020141601563 1.5765380859375 470.361083984375 C 2.97320556640625 477.3139038085938 5.611083984375 484.2962951660156 9.41778564453125 491.1163024902344 C 12.911376953125 497.3753051757813 17.46600341796875 503.6361389160156 22.95526123046875 509.7247924804688 C 32.3060302734375 520.0968017578125 44.47003173828125 530.135986328125 59.109375 539.5634765625 C 72.6336669921875 548.27294921875 85.48211669921875 554.6503295898438 93.8790283203125 558.466552734375 C 103.5628662109375 562.86767578125 109.9622192382813 565.0716552734375 110.8213500976563 565.1873168945313 L 111.79150390625 565.1873168945313 L 111.79150390625 565.8319702148438 C 112.2921142578125 566.1611938476563 113.8839111328125 566.9534912109375 117.5385131835938 568.1430053710938 C 120.3214721679688 569.0486450195313 125.060546875 570.4329833984375 131.8341674804688 571.8847045898438 C 142.030517578125 574.0698852539063 158.1339416503906 576.6748046875 176.9471130371094 576.6748046875 C 191.7344360351563 576.6748046875 205.6695251464844 575.043701171875 218.3652648925781 571.8267822265625 C 225.5872802734375 569.9968872070313 232.4897766113281 567.625732421875 238.8809509277344 564.7792358398438 C 245.7778625488281 561.7073974609375 252.2516174316406 558.0050048828125 258.1223754882813 553.7747192382813 C 269.838623046875 545.3323974609375 280.1455993652344 535.6944580078125 288.7568664550781 525.1285400390625 C 295.6455383300781 516.6763305664063 301.4715270996094 507.6137390136719 306.0729370117188 498.192626953125 C 310.1681823730469 489.8078002929688 312.5153503417969 482.6846313476563 313.7632751464844 478.185546875 C 315.1158752441406 473.3088989257813 315.5045166015625 470.3780517578125 315.5082092285156 470.3494873046875 L 317.4970397949219 470.5543823242188 C 317.4945983886719 470.5860595703125 317.2627868652344 473.7774047851563 318.1431884765625 479.191650390625 C 318.6636962890625 482.392578125 319.4646911621094 485.71240234375 320.5240173339844 489.0590515136719 C 321.8503723144531 493.2495727539063 323.5873718261719 497.4926452636719 325.6867065429688 501.67041015625 C 331.0411987304688 512.3262939453125 338.7548522949219 522.6243896484375 348.613525390625 532.2786254882813 C 360.9656066894531 544.374755859375 376.7354431152344 555.4851684570313 395.4849243164063 565.3013916015625 C 400.2908630371094 567.8175659179688 405.8182983398438 569.7142944335938 411.9136962890625 570.9390869140625 C 417.6680908203125 572.0953369140625 424.0718688964844 572.6815795898438 430.9472045898438 572.6815795898438 C 445.4453735351563 572.6815795898438 462.397705078125 570.1024169921875 481.3332824707031 565.0158081054688 C 496.960205078125 560.8179931640625 513.6611938476563 555.005126953125 530.9725341796875 547.7388916015625 C 544.4019775390625 542.1019897460938 558.0172119140625 535.6279907226563 569.3103637695313 529.5094604492188 C 573.939208984375 527.0015869140625 577.9606323242188 524.66845703125 580.9398803710938 522.7623901367188 C 584.9427490234375 520.2014770507813 585.4950561523438 519.4197387695313 585.5497436523438 519.3290405273438 L 585.822998046875 518.782470703125 L 586.4012451171875 518.782470703125 C 586.5294189453125 518.741943359375 587.5418701171875 518.34912109375 590.2869262695313 515.4364013671875 C 591.8751831054688 513.7509765625 594.4745483398438 510.7564086914063 597.8377075195313 506.0611572265625 C 601.015380859375 501.6248168945313 604.10546875 496.7454833984375 607.02197265625 491.5587158203125 C 610.4351806640625 485.4886474609375 613.5266723632813 479.1353149414063 616.21044921875 472.6753845214844 C 620.1351318359375 463.2283325195313 623.1819458007813 453.566162109375 625.2661743164063 443.9573059082031 C 627.668212890625 432.8837280273438 628.8093872070313 421.7760620117188 628.6581420898438 410.9429016113281 C 628.4876098632813 398.7333068847656 626.669189453125 386.65283203125 623.25341796875 375.0368041992188 C 621.4068603515625 368.7574768066406 619.057373046875 362.4963989257813 616.27001953125 356.4275512695313 C 613.3444213867188 350.0574951171875 609.8565063476563 343.7249755859375 605.9031982421875 337.6060485839844 C 585.0411376953125 305.3159790039063 556.8117065429688 267.5152282714844 521.9992065429688 225.2537231445313 C 494.1406860351563 191.4342346191406 462.0298461914063 154.7011413574219 426.55859375 116.0747985839844 C 394.9968566894531 81.70556640625 366.5627746582031 52.16973876953125 348.2672729492188 33.4443359375 C 331.1755981445313 15.9510498046875 319.5129089355469 4.38226318359375 316.5433044433594 1.447509765625 M 316.5000305175781 0 C 316.5000305175781 0 515.186767578125 195.3535766601563 606.7431030273438 337.0633850097656 C 666.0535278320313 428.8630676269531 592.2416381835938 519.782470703125 586.4410400390625 519.782470703125 C 584.0477294921875 524.569091796875 494.6317138671875 573.6815795898438 430.9472045898438 573.6815795898438 C 417.4566040039063 573.6815795898438 405.1317749023438 571.4807739257813 395.0211181640625 566.1873168945313 C 312.4412841796875 522.952880859375 316.5000305175781 470.477294921875 316.5000305175781 470.477294921875 C 316.5000305175781 470.477294921875 310.4665222167969 517.2900390625 258.7069396972656 554.5860595703125 C 234.0381774902344 572.3614501953125 203.7062377929688 577.6748046875 176.9470825195313 577.6748046875 C 140.5694580078125 577.6748046875 110.79150390625 567.8583374023438 110.79150390625 566.1873168945313 C 107.8911743164063 566.1873168945313 12.49359130859375 530.1882934570313 0.5799560546875 470.477294921875 C 0.5799560546875 467.5770568847656 -16.0968017578125 397.9697265625 20.88201904296875 337.0633850097656 C 57.8609619140625 276.1570739746094 90.4774169921875 255.2783813476563 148.4954528808594 189.1479797363281 C 233.5529479980469 92.1971435546875 316.5000305175781 0 316.5000305175781 0 Z M -0.665283203125 464.787353515625 C -0.60772705078125 464.787353515625 -0.2696533203125 466.21923828125 0.5799560546875 470.477294921875 C 0.5799560546875 470.7127685546875 0.5614013671875 470.8166809082031 0.52874755859375 470.8166809082031 C 0.28009033203125 470.8166809082031 -0.783447265625 464.787353515625 -0.665283203125 464.787353515625 Z" stroke="none" fill="#e5e5e5"/>
  </g>
</svg>
